# xmcd CD database file
#
# Track frame offsets:
#	150
#	23317
#	59062
#	77118
#	106509
#	132470
#	160601
#	187594
#	217083
#	249000
#
# Disc length: 3737 seconds
#
# Revision: 1
# Processed by: cddbd v1.4PL0 Copyright (c) Steve Scherf et al.
# Submitted via: CDex 1.50Beta7
#
DISCID=710e970a
DTITLE=Ramón Cardo - Joan Soler - Old Portrait
DYEAR=2002
DGENRE=Jazz
TTITLE0=Opus Tri
TTITLE1=Old Portrait
TTITLE2=Trulli
TTITLE3=Shakti
TTITLE4=Anna
TTITLE5=Dummy Blues
TTITLE6=Before you
TTITLE7=Theme for Ernie
TTITLE8=Shaw' Nuff
TTITLE9=Asphodel
EXTD=YEAR: 2002
EXTT0=
EXTT1=
EXTT2=
EXTT3=
EXTT4=
EXTT5=
EXTT6=
EXTT7=
EXTT8=
EXTT9=
PLAYORDER=
